<svg width="960" height="720" viewBox="0 0 960 720" fill="none" xmlns="http://www.w3.org/2000/svg">
  <rect width="960" height="720" rx="40" fill="#F8FBFF"/>
  <rect x="48" y="48" width="864" height="624" rx="32" fill="url(#bg)"/>
  <rect x="96" y="110" width="360" height="500" rx="28" fill="white" stroke="#D8E3F2"/>
  <rect x="128" y="148" width="112" height="16" rx="8" fill="#2563EB" fill-opacity="0.16"/>
  <rect x="128" y="188" width="220" height="34" rx="17" fill="#0F172A"/>
  <rect x="128" y="252" width="296" height="48" rx="16" fill="#F8FAFC" stroke="#E2E8F0"/>
  <rect x="128" y="318" width="296" height="48" rx="16" fill="#F8FAFC" stroke="#E2E8F0"/>
  <rect x="128" y="384" width="296" height="48" rx="16" fill="#F8FAFC" stroke="#E2E8F0"/>
  <rect x="128" y="450" width="170" height="46" rx="23" fill="url(#cta)"/>
  <rect x="314" y="450" width="110" height="46" rx="23" fill="white" stroke="#CBD5E1"/>
  <rect x="506" y="130" width="356" height="210" rx="28" fill="#0F172A"/>
  <rect x="538" y="168" width="140" height="16" rx="8" fill="#7DD3FC" fill-opacity="0.65"/>
  <rect x="538" y="204" width="208" height="36" rx="18" fill="white" fill-opacity="0.14"/>
  <rect x="538" y="272" width="292" height="10" rx="5" fill="white" fill-opacity="0.16"/>
  <rect x="538" y="294" width="312" height="10" rx="5" fill="white" fill-opacity="0.16"/>
  <rect x="538" y="316" width="260" height="10" rx="5" fill="white" fill-opacity="0.16"/>
  <rect x="506" y="372" width="170" height="110" rx="24" fill="white" stroke="#D8E3F2"/>
  <rect x="694" y="372" width="168" height="110" rx="24" fill="#EEF6FF" stroke="#C6DBFF"/>
  <rect x="532" y="510" width="330" height="104" rx="28" fill="white" stroke="#D8E3F2"/>
  <rect x="560" y="542" width="220" height="12" rx="6" fill="#E2E8F0"/>
  <rect x="560" y="566" width="262" height="12" rx="6" fill="#E2E8F0"/>
  <rect x="560" y="590" width="190" height="12" rx="6" fill="#CBD5E1"/>
  <defs>
    <linearGradient id="bg" x1="48" y1="48" x2="912" y2="672" gradientUnits="userSpaceOnUse">
      <stop stop-color="#FFFFFF"/>
      <stop offset="1" stop-color="#EEF6FF"/>
    </linearGradient>
    <linearGradient id="cta" x1="128" y1="450" x2="298" y2="496" gradientUnits="userSpaceOnUse">
      <stop stop-color="#2563EB"/>
      <stop offset="1" stop-color="#0EA5E9"/>
    </linearGradient>
  </defs>
</svg>
